<svg style="position: absolute; width: 0; height: 0; overflow: hidden;" version="1.1" xmlns="http://www.w3.org/2000/svg">
<defs>
<symbol id="icon-check_circle" viewBox="0 0 24 24">
<title>check_circle</title>
<path d="M7.969 15l9-9-1.406-1.453-7.594 7.594-3.563-3.563-1.406 1.406zM9.984 0c5.531 0 9.984 4.453 9.984 9.984s-4.453 9.984-9.984 9.984-9.984-4.453-9.984-9.984 4.453-9.984 9.984-9.984z"></path>
</symbol>
<symbol id="icon-prompt" viewBox="0 0 32 32">
<title>prompt</title>
<path d="M17.747 16.96c0 0.843-0.925 1.558-1.779 1.558s-1.645-0.776-1.645-1.618v-7.048c0-0.84 0.79-1.586 1.645-1.586s1.779 0.781 1.779 1.622v7.072zM16.006 23.55c-0.946 0-1.712-0.757-1.712-1.688s0.766-1.686 1.712-1.686c0.946 0 1.712 0.755 1.712 1.686s-0.766 1.688-1.712 1.688zM29.835 23.182c-1.147-1.862-10.846-18.048-11.37-18.834-1.037-1.558-3.638-1.53-4.677 0.077-0.496 0.768-10.528 17.274-11.587 18.848s-0.893 3.739 1.917 3.734c3.312-0.006 22.538-0.040 24.366 0.005 1.83 0.045 2.494-1.97 1.35-3.83z"></path>
</symbol>
</defs>
</svg>
